<?xml version="1.0" standalone="no"?>
<!DOCTYPE svg PUBLIC "-//W3C//DTD SVG 20010904//EN"
 "http://www.w3.org/TR/2001/REC-SVG-20010904/DTD/svg10.dtd">
<svg version="1.0" xmlns="http://www.w3.org/2000/svg"
 width="799.000000pt" height="1280.000000pt" viewBox="0 0 799.000000 1280.000000"
 preserveAspectRatio="xMidYMid meet">
<metadata>
Created by potrace 1.15, written by Peter Selinger 2001-2017
</metadata>
<g transform="translate(0.000000,1280.000000) scale(0.100000,-0.100000)"
fill="#000000" stroke="none">
<path d="M4710 12789 c-588 -9 -2245 -36 -2760 -45 -218 -4 -360 -10 -367 -16
-22 -17 -15 -40 31 -109 137 -204 377 -353 668 -415 104 -22 155 -23 1328 -6
1805 26 2019 30 2108 47 209 39 449 159 594 298 58 56 134 163 144 204 14 55
33 53 -630 51 -336 -1 -838 -5 -1116 -9z"/>
<path d="M6121 12280 c-101 -21 -349 -104 -384 -128 -119 -80 -259 -313 -367
-607 -59 -160 -80 -240 -80 -313 l0 -53 33 22 c17 12 142 133 277 268 254 257
301 294 419 334 72 25 221 34 292 17 201 -47 368 -236 437 -495 46 -174 63
-317 92 -765 34 -534 45 -622 90 -742 32 -85 75 -143 164 -217 44 -38 122
-106 172 -152 177 -165 224 -203 235 -192 8 8 4 25 -11 59 -31 71 -123 325
-153 424 -100 330 -129 527 -147 995 -22 563 -63 792 -189 1061 -107 227 -288
403 -481 466 -52 17 -95 22 -210 24 -80 2 -165 -1 -189 -6z"/>
<path d="M1691 12255 c-134 -32 -403 -203 -518 -328 -180 -198 -292 -503 -337
-922 -8 -77 -20 -264 -25 -415 -11 -284 -15 -350 -32 -555 -18 -217 -37 -278
-188 -594 -137 -285 -167 -388 -108 -365 9 3 55 60 104 127 103 143 217 256
364 360 121 86 161 131 189 213 41 117 50 216 60 619 14 579 31 761 85 922 36
105 74 177 143 265 128 166 239 219 479 232 135 7 195 -3 288 -48 128 -62 206
-143 378 -393 65 -94 130 -179 144 -188 l26 -18 -6 81 c-12 151 -50 270 -157
487 -112 225 -254 392 -349 410 -20 4 -119 33 -219 66 -193 62 -228 67 -321
44z"/>
<path d="M5100 12133 c-135 -1 -771 -9 -1415 -18 -963 -13 -1172 -18 -1184
-30 -11 -11 -7 -24 32 -87 108 -173 215 -446 312 -798 73 -266 130 -567 139
-742 5 -88 20 -130 53 -142 23 -9 215 -24 481 -37 303 -15 927 -6 1142 15 347
35 376 41 399 84 5 9 16 80 25 157 80 671 188 1064 400 1444 36 65 66 125 66
134 0 22 -23 27 -118 25 -48 -2 -197 -4 -332 -5z"/>
<path d="M4915 10225 c-216 -32 -448 -37 -1260 -30 -814 7 -1004 2 -1172 -30
-117 -23 -213 -60 -213 -84 0 -12 25 -17 204 -41 562 -75 1339 -117 1875 -100
476 15 828 41 1291 95 254 30 260 31 260 50 0 37 -71 55 -494 125 -200 33
-336 37 -491 15z"/>
<path d="M1815 9947 c-245 -115 -304 -144 -425 -215 -294 -172 -580 -402 -796
-643 -124 -137 -136 -155 -203 -296 -27 -55 -62 -121 -78 -145 -48 -68 -78
-135 -116 -253 -97 -303 -152 -560 -179 -840 -17 -183 -17 -972 0 -1130 88
-789 421 -1647 1145 -2950 256 -460 440 -744 826 -1270 330 -449 455 -606 615
-772 111 -116 137 -136 214 -176 125 -65 221 -101 415 -157 381 -109 688 -146
990 -121 240 20 440 68 644 152 471 196 643 385 1450 1594 444 666 687 1094
938 1655 384 858 646 1771 710 2478 83 903 -53 1615 -406 2133 -221 323 -518
583 -939 819 -264 149 -370 191 -480 191 -36 1 -202 -18 -370 -40 -1020 -137
-1191 -151 -1840 -151 -575 0 -851 18 -1227 80 -187 31 -458 94 -560 130 -92
32 -109 28 -328 -73z"/>
<path d="M5245 1265 c-190 -128 -445 -226 -742 -285 -328 -65 -762 -67 -1093
-5 -222 42 -515 148 -657 238 -24 15 -45 27 -48 27 -15 0 -36 -52 -30 -78 5
-24 19 -35 83 -67 362 -180 784 -275 1217 -275 476 0 981 132 1315 342 70 45
86 61 96 96 7 26 -19 62 -45 62 -9 -1 -52 -25 -96 -55z"/>
<path d="M2549 1225 c-3 -2 -57 -17 -121 -34 -63 -16 -149 -44 -191 -61 -103
-43 -240 -135 -338 -228 l-82 -78 12 -37 c7 -20 33 -59 58 -87 146 -162 731
-317 1423 -375 91 -8 327 -20 525 -26 344 -11 370 -11 585 10 637 62 969 115
1255 200 368 109 546 229 504 338 -45 119 -252 244 -588 353 l-84 28 -91 -60
c-122 -81 -383 -207 -531 -258 -321 -110 -570 -150 -940 -150 -449 0 -808 76
-1138 241 -56 28 -113 61 -126 72 -30 28 -51 77 -51 122 0 34 -1 35 -38 35
-21 0 -41 -2 -43 -5z"/>
<path d="M6080 599 c-231 -111 -377 -163 -619 -224 -463 -116 -942 -165 -1606
-165 -940 1 -1240 47 -1805 280 -154 64 -197 77 -209 65 -17 -18 15 -104 60
-163 90 -116 303 -197 749 -286 324 -65 630 -90 1265 -102 288 -5 362 -3 580
15 796 68 1118 134 1481 306 124 58 196 116 225 180 27 59 24 146 -5 144 -6 0
-58 -23 -116 -50z"/>
</g>
</svg>
