<svg version="1.1" id="Layer_1" xmlns="http://www.w3.org/2000/svg" xmlns:xlink="http://www.w3.org/1999/xlink" x="0px" y="0px"
	 width="100%" viewBox="0 0 450 450" enable-background="new 0 0 450 450" xml:space="preserve">
<path fill="#000000" opacity="1.000000" stroke="none" 
	d="
M451.000000,162.000000 
	C451.000000,258.639984 451.000000,354.779938 451.000000,450.959961 
	C301.068329,450.959961 151.136673,450.959961 1.102496,450.959961 
	C1.102496,301.110016 1.102496,151.219971 1.102496,1.164951 
	C150.999847,1.164951 300.999908,1.164951 451.000000,1.164951 
	C451.000000,54.530033 451.000000,108.015015 451.000000,162.000000 
M268.500000,448.000214 
	C310.664673,448.000183 352.829498,448.044464 394.993805,447.918427 
	C398.475616,447.908020 402.006409,446.948486 405.424530,446.077209 
	C418.102600,442.845306 427.927002,435.088898 436.012756,425.286316 
	C443.339294,416.404083 447.875488,405.832794 447.893707,394.256348 
	C448.070526,281.762726 448.014557,169.268677 447.929016,56.774845 
	C447.926453,53.432175 447.036469,50.052708 446.279633,46.754787 
	C443.481232,34.560707 436.458466,24.949150 427.277771,16.841331 
	C417.800598,8.471663 406.671570,3.125966 393.987885,3.105470 
	C281.660950,2.923956 169.333588,2.999285 57.006336,3.008033 
	C55.517452,3.008149 53.993908,2.946035 52.545082,3.221207 
	C38.553398,5.878614 26.687716,12.311157 17.317497,23.167334 
	C8.596510,33.271320 3.058780,44.778984 3.048427,58.280312 
	C2.962803,169.940857 2.983664,281.601501 3.072191,393.262054 
	C3.075102,396.934967 3.978492,400.641876 4.745270,404.273163 
	C7.501527,417.326324 15.192264,427.437683 25.229116,435.507568 
	C34.492378,442.955475 45.082718,448.029236 57.511406,448.021423 
	C127.507576,447.977386 197.503799,448.000183 268.500000,448.000214 
z"/>
<path fill="#FFFFFE" opacity="1.000000" stroke="none" 
	d="
M268.000000,448.000214 
	C197.503799,448.000183 127.507576,447.977386 57.511406,448.021423 
	C45.082718,448.029236 34.492378,442.955475 25.229116,435.507568 
	C15.192264,427.437683 7.501527,417.326324 4.745270,404.273163 
	C3.978492,400.641876 3.075102,396.934967 3.072191,393.262054 
	C2.983664,281.601501 2.962803,169.940857 3.048427,58.280312 
	C3.058780,44.778984 8.596510,33.271320 17.317497,23.167334 
	C26.687716,12.311157 38.553398,5.878614 52.545082,3.221207 
	C53.993908,2.946035 55.517452,3.008149 57.006336,3.008033 
	C169.333588,2.999285 281.660950,2.923956 393.987885,3.105470 
	C406.671570,3.125966 417.800598,8.471663 427.277771,16.841331 
	C436.458466,24.949150 443.481232,34.560707 446.279633,46.754787 
	C447.036469,50.052708 447.926453,53.432175 447.929016,56.774845 
	C448.014557,169.268677 448.070526,281.762726 447.893707,394.256348 
	C447.875488,405.832794 443.339294,416.404083 436.012756,425.286316 
	C427.927002,435.088898 418.102600,442.845306 405.424530,446.077209 
	C402.006409,446.948486 398.475616,447.908020 394.993805,447.918427 
	C352.829498,448.044464 310.664673,448.000183 268.000000,448.000214 
M273.997772,307.986176 
	C273.997772,307.986176 273.964996,307.928070 273.303619,308.095764 
	C263.600189,316.694305 252.383759,322.533051 239.623962,324.493805 
	C231.126770,325.799561 222.379120,326.135101 213.768158,325.920013 
	C185.386444,325.211212 165.242401,310.656830 154.920410,284.246643 
	C149.316650,269.908630 147.291626,254.948227 147.176575,239.732117 
	C146.958588,210.902130 147.102158,182.069427 147.078461,153.237869 
	C147.077042,151.504166 146.925583,149.770599 146.852829,148.226212 
	C146.161438,148.063232 145.967041,147.946472 145.847519,147.999283 
	C116.940651,160.768250 88.027290,173.522888 59.181084,186.427597 
	C58.056591,186.930664 56.872921,188.889297 56.899570,190.144577 
	C57.507309,218.769073 56.954578,247.503967 59.401978,275.979034 
	C61.757797,303.388580 71.747887,328.714691 89.366074,350.445831 
	C102.719849,366.917023 119.078033,379.444397 139.353363,387.840210 
	C142.713028,389.278870 145.987076,390.977417 149.445343,392.116852 
	C195.440781,407.271912 241.911591,407.374664 287.948090,393.642944 
	C334.382965,379.792450 364.769012,348.731659 378.781067,302.064453 
	C387.733337,272.248779 387.416107,241.622696 386.915741,210.039459 
	C386.915741,154.163803 386.915741,98.288139 386.915741,41.913067 
	C384.998047,42.578598 383.595398,42.973801 382.265747,43.540459 
	C358.411255,53.706612 334.550751,63.858974 310.730438,74.104767 
	C305.897308,76.183632 299.352203,77.463364 296.996521,81.235107 
	C294.593903,85.082100 296.380707,91.545639 296.151306,97.801376 
	C296.142883,143.235046 296.188446,188.668839 296.076752,234.102249 
	C296.056366,242.401138 295.816589,250.743088 294.943024,258.987274 
	C293.050232,276.850769 287.790039,293.449310 274.424225,307.020782 
	C274.260132,307.346069 274.096008,307.671356 273.997772,307.986176 
z"/>
<path fill="#7EC184" opacity="1.000000" stroke="none" 
	d="
M274.949860,306.802979 
	C287.790039,293.449310 293.050232,276.850769 294.943024,258.987274 
	C295.816589,250.743088 296.056366,242.401138 296.076752,234.102249 
	C296.188446,188.668839 296.142883,143.235046 296.609894,97.357712 
	C298.935516,97.556717 300.913544,97.982788 302.653107,98.874207 
	C334.082672,114.979927 356.684845,139.819016 373.216858,170.575134 
	C380.028748,183.247910 383.832977,196.978577 386.801788,210.967743 
	C387.416107,241.622696 387.733337,272.248779 378.781067,302.064453 
	C364.769012,348.731659 334.382965,379.792450 287.948090,393.642944 
	C241.911591,407.374664 195.440781,407.271912 149.445343,392.116852 
	C145.987076,390.977417 142.713028,389.278870 139.543350,387.516022 
	C149.450470,386.122559 159.345139,385.880615 168.853912,383.840240 
	C209.227249,375.177094 242.603424,355.001373 267.431458,321.645325 
	C270.397949,317.659912 271.824585,312.528351 273.964996,307.928070 
	C273.964996,307.928070 273.997772,307.986176 274.226624,307.890686 
	C274.620300,307.464447 274.785065,307.133728 274.949860,306.802979 
z"/>
<path fill="#4675AB" opacity="1.000000" stroke="none" 
	d="
M273.634308,308.011902 
	C271.824585,312.528351 270.397949,317.659912 267.431458,321.645325 
	C242.603424,355.001373 209.227249,375.177094 168.853912,383.840240 
	C159.345139,385.880615 149.450470,386.122559 139.268814,387.312866 
	C119.078033,379.444397 102.719849,366.917023 89.366074,350.445831 
	C71.747887,328.714691 61.757797,303.388580 59.401978,275.979034 
	C56.954578,247.503967 57.507309,218.769073 56.899570,190.144577 
	C56.872921,188.889297 58.056591,186.930664 59.181084,186.427597 
	C88.027290,173.522888 116.940651,160.768250 145.847519,147.999283 
	C145.967041,147.946472 146.161438,148.063232 146.852829,148.226212 
	C146.925583,149.770599 147.077042,151.504166 147.078461,153.237869 
	C147.102158,182.069427 146.958588,210.902130 147.176575,239.732117 
	C147.291626,254.948227 149.316650,269.908630 154.920410,284.246643 
	C165.242401,310.656830 185.386444,325.211212 213.768158,325.920013 
	C222.379120,326.135101 231.126770,325.799561 239.623962,324.493805 
	C252.383759,322.533051 263.600189,316.694305 273.634308,308.011902 
z"/>
<path fill="#5A9DCD" opacity="1.000000" stroke="none" 
	d="
M386.858765,210.503601 
	C383.832977,196.978577 380.028748,183.247910 373.216858,170.575134 
	C356.684845,139.819016 334.082672,114.979927 302.653107,98.874207 
	C300.913544,97.982788 298.935516,97.556717 296.700897,96.888824 
	C296.380707,91.545639 294.593903,85.082100 296.996521,81.235107 
	C299.352203,77.463364 305.897308,76.183632 310.730438,74.104767 
	C334.550751,63.858974 358.411255,53.706612 382.265747,43.540459 
	C383.595398,42.973801 384.998047,42.578598 386.915741,41.913067 
	C386.915741,98.288139 386.915741,154.163803 386.858765,210.503601 
z"/>
<path fill="#4675AB" opacity="1.000000" stroke="none" 
	d="
M274.687042,306.911865 
	C274.785065,307.133728 274.620300,307.464447 274.193695,307.895905 
	C274.096008,307.671356 274.260132,307.346069 274.687042,306.911865 
z"/>
</svg>